<mxfile host="65bd71144e">
    <diagram name="Trang-1" id="YS5UEWFVJR9cG9Uci2pZ">
        <mxGraphModel dx="576" dy="480" grid="1" gridSize="10" guides="1" tooltips="1" connect="1" arrows="1" fold="1" page="1" pageScale="1" pageWidth="827" pageHeight="1169" math="0" shadow="0">
            <root>
                <mxCell id="0"/>
                <mxCell id="1" parent="0"/>
                <mxCell id="4ir1VBEv7XTjqCk2KUgQ-1" value="tomcat" style="rounded=0;whiteSpace=wrap;html=1;" parent="1" vertex="1">
                    <mxGeometry x="440" y="760" width="120" height="60" as="geometry"/>
                </mxCell>
                <mxCell id="4ir1VBEv7XTjqCk2KUgQ-6" value="" style="edgeStyle=orthogonalEdgeStyle;rounded=0;orthogonalLoop=1;jettySize=auto;html=1;" parent="1" source="4ir1VBEv7XTjqCk2KUgQ-2" target="4ir1VBEv7XTjqCk2KUgQ-1" edge="1">
                    <mxGeometry relative="1" as="geometry"/>
                </mxCell>
                <mxCell id="4ir1VBEv7XTjqCk2KUgQ-2" value="nginx (master)" style="rounded=0;whiteSpace=wrap;html=1;" parent="1" vertex="1">
                    <mxGeometry x="440" y="640" width="120" height="60" as="geometry"/>
                </mxCell>
                <mxCell id="4ir1VBEv7XTjqCk2KUgQ-7" value="" style="edgeStyle=orthogonalEdgeStyle;rounded=0;orthogonalLoop=1;jettySize=auto;html=1;" parent="1" source="4ir1VBEv7XTjqCk2KUgQ-3" target="4ir1VBEv7XTjqCk2KUgQ-5" edge="1">
                    <mxGeometry relative="1" as="geometry"/>
                </mxCell>
                <mxCell id="4ir1VBEv7XTjqCk2KUgQ-3" value="nginx (backup)" style="rounded=0;whiteSpace=wrap;html=1;" parent="1" vertex="1">
                    <mxGeometry x="680" y="640" width="120" height="60" as="geometry"/>
                </mxCell>
                <mxCell id="4ir1VBEv7XTjqCk2KUgQ-4" value="keepalived" style="rounded=0;whiteSpace=wrap;html=1;" parent="1" vertex="1">
                    <mxGeometry x="560" y="550" width="120" height="60" as="geometry"/>
                </mxCell>
                <mxCell id="4ir1VBEv7XTjqCk2KUgQ-5" value="tomcat" style="rounded=0;whiteSpace=wrap;html=1;" parent="1" vertex="1">
                    <mxGeometry x="680" y="760" width="120" height="60" as="geometry"/>
                </mxCell>
                <mxCell id="4ir1VBEv7XTjqCk2KUgQ-8" value="" style="endArrow=classic;html=1;rounded=0;exitX=0.5;exitY=1;exitDx=0;exitDy=0;entryX=0.5;entryY=0;entryDx=0;entryDy=0;" parent="1" source="4ir1VBEv7XTjqCk2KUgQ-4" target="4ir1VBEv7XTjqCk2KUgQ-3" edge="1">
                    <mxGeometry width="50" height="50" relative="1" as="geometry">
                        <mxPoint x="470" y="790" as="sourcePoint"/>
                        <mxPoint x="520" y="740" as="targetPoint"/>
                    </mxGeometry>
                </mxCell>
                <mxCell id="4ir1VBEv7XTjqCk2KUgQ-9" value="" style="endArrow=classic;html=1;rounded=0;exitX=0.5;exitY=1;exitDx=0;exitDy=0;entryX=0.5;entryY=0;entryDx=0;entryDy=0;" parent="1" source="4ir1VBEv7XTjqCk2KUgQ-4" target="4ir1VBEv7XTjqCk2KUgQ-2" edge="1">
                    <mxGeometry width="50" height="50" relative="1" as="geometry">
                        <mxPoint x="470" y="790" as="sourcePoint"/>
                        <mxPoint x="520" y="740" as="targetPoint"/>
                    </mxGeometry>
                </mxCell>
                <mxCell id="4ir1VBEv7XTjqCk2KUgQ-10" value="" style="endArrow=classic;html=1;rounded=0;exitX=1;exitY=1;exitDx=0;exitDy=0;entryX=0;entryY=0;entryDx=0;entryDy=0;" parent="1" source="4ir1VBEv7XTjqCk2KUgQ-2" target="4ir1VBEv7XTjqCk2KUgQ-5" edge="1">
                    <mxGeometry width="50" height="50" relative="1" as="geometry">
                        <mxPoint x="470" y="790" as="sourcePoint"/>
                        <mxPoint x="520" y="740" as="targetPoint"/>
                    </mxGeometry>
                </mxCell>
                <mxCell id="4ir1VBEv7XTjqCk2KUgQ-11" value="" style="endArrow=classic;html=1;rounded=0;entryX=1;entryY=0;entryDx=0;entryDy=0;exitX=0;exitY=1;exitDx=0;exitDy=0;" parent="1" source="4ir1VBEv7XTjqCk2KUgQ-3" target="4ir1VBEv7XTjqCk2KUgQ-1" edge="1">
                    <mxGeometry width="50" height="50" relative="1" as="geometry">
                        <mxPoint x="660" y="700" as="sourcePoint"/>
                        <mxPoint x="690" y="770" as="targetPoint"/>
                    </mxGeometry>
                </mxCell>
                <mxCell id="4ir1VBEv7XTjqCk2KUgQ-12" value="tomcat (master)" style="rounded=0;whiteSpace=wrap;html=1;" parent="1" vertex="1">
                    <mxGeometry y="720" width="120" height="60" as="geometry"/>
                </mxCell>
                <mxCell id="4ir1VBEv7XTjqCk2KUgQ-13" value="keepalived (VIP)" style="rounded=0;whiteSpace=wrap;html=1;" parent="1" vertex="1">
                    <mxGeometry x="120" y="620" width="120" height="60" as="geometry"/>
                </mxCell>
                <mxCell id="4ir1VBEv7XTjqCk2KUgQ-14" value="tomcat (backup)" style="rounded=0;whiteSpace=wrap;html=1;" parent="1" vertex="1">
                    <mxGeometry x="240" y="720" width="120" height="60" as="geometry"/>
                </mxCell>
                <mxCell id="4ir1VBEv7XTjqCk2KUgQ-15" value="" style="endArrow=classic;html=1;rounded=0;exitX=0.5;exitY=1;exitDx=0;exitDy=0;entryX=0.5;entryY=0;entryDx=0;entryDy=0;" parent="1" source="4ir1VBEv7XTjqCk2KUgQ-13" target="4ir1VBEv7XTjqCk2KUgQ-12" edge="1">
                    <mxGeometry width="50" height="50" relative="1" as="geometry">
                        <mxPoint x="390" y="710" as="sourcePoint"/>
                        <mxPoint x="440" y="660" as="targetPoint"/>
                    </mxGeometry>
                </mxCell>
                <mxCell id="4ir1VBEv7XTjqCk2KUgQ-16" value="" style="endArrow=classic;html=1;rounded=0;entryX=0.5;entryY=0;entryDx=0;entryDy=0;" parent="1" target="4ir1VBEv7XTjqCk2KUgQ-14" edge="1">
                    <mxGeometry width="50" height="50" relative="1" as="geometry">
                        <mxPoint x="180" y="680" as="sourcePoint"/>
                        <mxPoint x="70" y="730" as="targetPoint"/>
                    </mxGeometry>
                </mxCell>
            </root>
        </mxGraphModel>
    </diagram>
</mxfile>